<svg xmlns="http://www.w3.org/2000/svg" width="512" height="512" viewBox="0 0 140 140">
  <circle cx="70" cy="70" r="70" fill="#1e2330"/>
  <g transform="translate(10, 0) scale(0.85)" fill="#ffffff">
    <g transform="translate(8,-131)">
      <path d="m 93.2972,163.14 a 14.1019,14.1019 0 0 0 -11.5469,7.035 14.1019,14.1019 0 0 0 5.1612,19.263 14.1019,14.1019 0 0 0 19.2635,-5.161 14.1019,14.1019 0 0 0 -5.161,-19.264 14.1019,14.1019 0 0 0 -7.7168,-1.873 z m -43.5267,17.09 c -1.5952,0 -3.0721,0.208 -4.3484,0.706 -6.214,2.426 -10.8181,16.84 -10.8181,16.84 v 0 c -2.9213,5.871 -5.1716,15.614 2.5419,16.961 3.7401,-9.067 4.7585,-17.816 13.7869,-23.62 l 13.7716,6.324 -17.2877,29.943 c -0.2587,0.505 -0.4537,0.992 -0.5945,1.463 -0.8885,0.903 -1.6325,2.003 -2.1526,3.295 -7.0581,17.527 -9.9534,34.318 -24.0891,48.249 -4.4658,4.398 -8.8383,12.037 -4.4556,14.568 4.3827,2.53 11.9846,-6.183 17.1265,-9.764 9.6478,-6.715 18.8509,-18.895 27.167,-43.704 3.8097,1.556 7.7536,3.081 10.9027,4.844 5.8881,3.295 -26.9735,19.523 -21.1294,22.897 5.8428,3.373 13.3403,-0.674 19.4985,-3.434 21.3824,-9.583 37.3988,-21.862 2.1384,-38.068 l 9.3618,-12.725 c 2.0679,4.556 4.7598,8.772 8.065,10.483 5.9251,3.067 19.7906,-2.991 19.7906,-2.991 v 0 c 6.338,-1.683 15.143,-6.426 11.061,-13.108 -9.28,3.17 -16.524,8.182 -26.8424,5.232 L 89.6538,202.55 c 1.5195,-5.017 -1.0999,-10.872 -5.9433,-13.668 -3.3298,-1.923 -7.1713,-2.102 -10.485,-0.82 -2.0039,-1.107 -14.5018,-7.815 -23.4588,-7.836 z"/>
    </g>
  </g>
</svg>
