<svg xmlns="http://www.w3.org/2000/svg" viewBox="0 0 160 48" width="160" height="48">
  <g fill="currentColor">
    <path d="M14.88 40.6 c-3.88 0 -7.04 -0.84 -9.52 -2.56 s-3.72 -4.04 -3.72 -7.04 l0 -0.36 l-0.04 -1.6 l7.84 0 l0 1.8 c0 0.68 0.48 1.32 1.4 1.92 s2.2 0.92 3.88 0.92 c1.4 0 2.4 -0.2 3.04 -0.56 c0.6 -0.36 0.92 -0.84 0.92 -1.36 c0 -0.64 -0.4 -1.2 -1.16 -1.68 c-0.8 -0.48 -2.2 -1.04 -4.16 -1.72 c-1.24 -0.44 -2.28 -0.8 -3.12 -1.12 s-1.84 -0.8 -3 -1.44 c-1.16 -0.6 -2.12 -1.28 -2.8 -1.96 s-1.28 -1.52 -1.8 -2.56 s-0.76 -2.16 -0.76 -3.4 c0 -2.92 1.12 -5.28 3.4 -7.04 s5.2 -2.64 8.8 -2.64 c3.72 0 6.76 0.92 9.16 2.76 s3.6 4.28 3.6 7.32 l0 1.96 l-7.8 0 l0 -1.8 c0 -0.84 -0.4 -1.64 -1.24 -2.32 s-2.04 -1 -3.56 -1 c-1.24 0 -2.2 0.2 -2.84 0.6 c-0.64 0.44 -0.96 0.92 -0.96 1.52 s0.36 1.08 1.08 1.48 c0.72 0.44 2.08 1 4.08 1.68 l2.04 0.72 l2.16 0.88 c0.92 0.44 1.68 0.8 2.24 1.16 s1.2 0.84 1.96 1.44 s1.32 1.24 1.76 1.84 c0.4 0.6 0.76 1.36 1.08 2.2 c0.28 0.84 0.44 1.76 0.44 2.68 c0 2.96 -1.16 5.24 -3.44 6.84 c-2.28 1.64 -5.28 2.44 -8.96 2.44 z M30.48 40 l0 -31.2 l13.76 0 c3.92 0 6.96 1 9.08 3 c2.12 2.04 3.16 4.56 3.16 7.48 c0 3.08 -1.04 5.64 -3.16 7.64 s-5.12 3.04 -9.08 3.04 l-5.76 0 l0 10.04 l-8 0 z M38.48 23.56 l5.32 0 c3.08 0 4.6 -1.4 4.6 -4.24 c0 -1.2 -0.36 -2.16 -1.12 -2.96 s-1.92 -1.16 -3.48 -1.16 l-5.32 0 l0 8.36 z M59.68 40 l0 -31.2 l13.76 0 c3.92 0 6.96 1 9.08 3 c2.12 2.04 3.16 4.56 3.16 7.48 c0 3.08 -1.04 5.64 -3.16 7.64 c-0.68 0.64 -1.44 1.16 -2.28 1.6 l6.24 11.48 l-7.56 0 l-5.48 -10.04 l-5.76 0 l0 10.04 l-8 0 z M67.68 23.56 l5.32 0 c3.08 0 4.6 -1.4 4.6 -4.24 c0 -1.2 -0.36 -2.16 -1.12 -2.96 s-1.92 -1.16 -3.48 -1.16 l-5.32 0 l0 8.36 z M89.68 40 l0 -31.2 l8 0 l0 31.2 l-8 0 z M100.88 40 l0 -31.2 l6.8 0 l13.92 17.44 l0 -17.44 l7.96 0 l0 31.2 l-6.76 0 l-13.92 -17.4 l0 17.4 l-8 0 z M142.48 40 l0 -23.44 l-9.72 0 l0 -7.76 l27.44 0 l0 7.76 l-9.72 0 l0 23.44 l-8 0 z"/>
  </g>
</svg>
